<svg width="174" height="200" viewBox="0 0 174 200" fill="none" xmlns="http://www.w3.org/2000/svg">
<path d="M172.932 84.2893C173.404 87.7209 173.723 91.2106 173.882 94.7489L171.385 94.8613C171.461 96.5628 171.5 98.2761 171.5 100C171.5 101.724 171.461 103.437 171.385 105.139L173.882 105.251C173.723 108.789 173.404 112.279 172.932 115.711L170.456 115.371C169.985 118.8 169.359 122.169 168.587 125.468L171.022 126.038C170.216 129.482 169.254 132.852 168.145 136.138L165.777 135.339C164.673 138.611 163.421 141.797 162.029 144.885L164.309 145.912C162.858 149.133 161.26 152.252 159.523 155.256L157.359 154.005C155.635 156.988 153.773 159.855 151.784 162.593L153.806 164.062C151.731 166.918 149.52 169.639 147.184 172.212L145.333 170.532C143.025 173.073 140.594 175.465 138.052 177.693L139.699 179.573C137.051 181.894 134.282 184.045 131.407 186.01L129.996 183.946C127.179 185.872 124.259 187.613 121.247 189.156L122.387 191.381C119.268 192.979 116.052 194.373 112.753 195.546L111.915 193.191C108.731 194.323 105.469 195.244 102.139 195.939L102.65 198.386C99.2485 199.097 95.7783 199.579 92.2514 199.821L92.0808 197.327C90.4003 197.442 88.7062 197.5 87 197.5C85.2938 197.5 83.5998 197.442 81.9193 197.327L81.7486 199.821C78.2218 199.579 74.7515 199.097 71.3502 198.386L71.8611 195.939C68.5312 195.244 65.2685 194.323 62.0852 193.191L61.2474 195.546C57.9476 194.373 54.7317 192.979 51.6127 191.381L52.7528 189.156C49.7413 187.613 46.8208 185.872 44.0039 183.946L42.5931 186.01C39.7178 184.045 36.9495 181.894 34.3005 179.573L35.9482 177.693C33.4058 175.465 30.9748 173.073 28.6671 170.532L26.8162 172.212C24.4803 169.639 22.2689 166.918 20.1937 164.062L22.2162 162.593C20.227 159.855 18.365 156.988 16.6412 154.005L14.4766 155.256C12.7404 152.252 11.1419 149.133 9.69115 145.912L11.9706 144.885C10.5795 141.797 9.32713 138.611 8.22337 135.339L5.85451 136.138C4.74602 132.852 3.78427 129.482 2.9785 126.038L5.41275 125.468C4.64077 122.169 4.01506 118.8 3.54428 115.371L1.06752 115.711C0.596402 112.279 0.27714 108.789 0.117888 105.251L2.61536 105.139C2.53878 103.437 2.5 101.724 2.5 100C2.5 98.2761 2.53878 96.5629 2.61536 94.8613L0.117887 94.7489C0.277139 91.2106 0.596401 87.7209 1.06751 84.2893L3.54428 84.6293C4.01506 81.2002 4.64076 77.831 5.41274 74.5317L2.97849 73.9622C3.78426 70.5184 4.74601 67.1481 5.8545 63.862L8.22336 64.661C9.32712 61.3889 10.5795 58.203 11.9706 55.1145L9.69115 54.0878C11.1419 50.867 12.7404 47.7484 14.4766 44.744L16.6412 45.9948C18.365 43.0116 20.227 40.1451 22.2162 37.4074L20.1937 35.9378C22.2689 33.0817 24.4802 30.3606 26.8161 27.7879L28.6671 29.4684C30.9748 26.9266 33.4058 24.5353 35.9482 22.3073L34.3005 20.4271C36.9495 18.1058 39.7178 15.9552 42.5931 13.9897L44.0039 16.0535C46.8208 14.1279 49.7413 12.3868 52.7528 10.8437L51.6127 8.61879C54.7317 7.02065 57.9475 5.62728 61.2474 4.45354L62.0852 6.80897C65.2685 5.67667 68.5312 4.75599 71.8611 4.06075L71.3502 1.61352C74.7515 0.903374 78.2217 0.42053 81.7486 0.179177L81.9192 2.67334C83.5997 2.55834 85.2938 2.5 87 2.5C88.7062 2.5 90.4002 2.55834 92.0807 2.67334L92.2514 0.179177C95.7782 0.420529 99.2485 0.903373 102.65 1.61352L102.139 4.06075C105.469 4.75599 108.731 5.67667 111.915 6.80897L112.753 4.45354C116.052 5.62728 119.268 7.02065 122.387 8.61879L121.247 10.8437C124.259 12.3868 127.179 14.1279 129.996 16.0535L131.407 13.9897C134.282 15.9552 137.051 18.1058 139.699 20.4271L138.052 22.3073C140.594 24.5353 143.025 26.9266 145.333 29.4684L147.184 27.7879C149.52 30.3606 151.731 33.0817 153.806 35.9378L151.784 37.4074C153.773 40.1451 155.635 43.0116 157.359 45.9947L159.523 44.7439C161.26 47.7484 162.858 50.867 164.309 54.0878L162.029 55.1145C163.421 58.203 164.673 61.3888 165.777 64.661L168.145 63.8619C169.254 67.1481 170.216 70.5184 171.021 73.9621L168.587 74.5317C169.359 77.831 169.985 81.2001 170.456 84.6293L172.932 84.2893Z" stroke="black" stroke-width="5" stroke-dasharray="10 10"/>
</svg>
